<svg width="323" height="46" viewBox="0 0 323 46" fill="none" xmlns="http://www.w3.org/2000/svg">
<g filter="url(#filter0_d_67_391)">
<path d="M9.58481 1.12137C7.999 1.8756 6.27529 3.27629 5.44791 4.51537C4.1379 6.50866 4 7.53225 4 18.5223C4 29.5124 4.1379 30.536 5.44791 32.2599C8.82637 36.8391 12.2738 37.324 38.1294 37.0007C53.229 36.8391 55.2975 36.6775 57.7107 35.7616C62.606 33.8222 63.2955 32.5831 63.5023 24.61C63.7091 19.1688 63.5713 17.4449 62.8128 17.1216C62.3302 16.8523 55.7801 16.6368 48.3337 16.6368C35.5783 16.6368 34.682 16.6906 33.9925 17.6604C33.6477 18.253 33.303 19.492 33.303 20.4079C33.303 24.0174 33.7167 24.179 43.7142 24.179H52.6774L52.4706 26.4416L52.2637 28.7582L34.682 28.8659C24.3397 28.9737 16.6865 28.812 16.0659 28.4888C14.4801 27.7346 14.1354 10.6569 15.7212 8.77132L16.7554 7.47837H40.2668H63.7091L63.2955 6.2393C62.6749 4.56924 60.8133 2.62981 58.538 1.33686C56.7454 0.259407 55.6422 0.205532 34.4751 0.0439148C12.5496 -0.0638313 12.2738 -0.0638313 9.58481 1.12137Z" fill="#EFEFEF"/>
<path d="M70.1732 0.26115C69.8867 0.47966 69.6719 2.22776 69.6719 4.13975V7.58133H91.5861C105.265 7.58133 114.002 7.79984 114.861 8.12761C116.078 8.61927 116.222 9.32943 116.222 13.8636C116.222 16.6496 116.007 19.1079 115.72 19.2171C115.362 19.381 109.06 19.6542 101.612 19.8181C94.0926 20.0366 87.9337 20.2551 87.7905 20.3643C87.6473 20.4736 92.6603 24.2429 98.9624 28.8317L110.349 37.0806H118.299H126.319L120.375 32.6557C115.147 28.7224 114.575 28.1762 115.864 27.7938C127.465 24.4614 127.322 24.68 127.322 13.8636C127.322 4.52215 126.892 3.53884 121.879 1.29908C119.588 0.26115 117.94 0.20652 95.0952 0.0426369C81.6316 -0.0666199 70.4596 0.0426369 70.1732 0.26115Z" fill="#EFEFEF"/>
<path d="M133.98 0.381489C133.705 0.545082 133.499 7.47046 133.499 15.65C133.499 29.6644 133.568 30.7005 134.942 32.7727C135.905 34.354 137.142 35.2811 139.204 36.0445C141.816 36.9715 143.947 37.0806 163.055 37.0806C183.47 37.0806 184.157 37.026 187.113 35.8264C192.749 33.5906 192.956 32.9908 193.162 16.0318C193.299 3.65332 193.162 1.14492 192.337 0.599609C191.718 0.217896 189.656 -0.000225067 186.976 0.108837L182.645 0.272427L182.301 14.3413C182.027 26.0109 181.752 28.4647 180.927 28.901C179.346 29.7189 146.353 29.6099 145.322 28.7919C144.703 28.3011 144.497 24.5385 144.497 15.1047C144.497 7.19781 144.222 1.69022 143.809 1.03585C143.191 0.163368 142.297 -0.000225067 138.723 -0.000225067C136.386 -0.000225067 134.186 0.163368 133.98 0.381489Z" fill="#EFEFEF"/>
<path d="M197.993 0.772758C197.374 1.3737 197.237 5.63492 197.374 16.6158C197.58 30.7652 197.649 31.6939 199.023 33.1144C199.779 33.9338 201.29 35.1357 202.321 35.7366C204.107 36.8293 205.206 36.8839 225.265 37.0478C239.761 37.157 247.249 36.9932 249.241 36.5561C252.813 35.7913 255.561 33.5514 256.385 30.8198C257.347 27.4874 257.21 1.48296 256.179 0.663494C255.08 -0.210602 247.936 -0.210602 246.836 0.663494C246.218 1.15517 246.012 5.03398 246.012 14.7583C246.012 24.4826 245.806 28.3614 245.188 28.8531C244.02 29.7819 210.221 29.7819 209.053 28.8531C208.435 28.3614 208.229 24.4826 208.229 14.7583C208.229 5.03398 208.022 1.15517 207.404 0.663494C206.236 -0.265236 198.954 -0.210602 197.993 0.772758Z" fill="#EFEFEF"/>
<path d="M259.894 0.653881C258.782 1.52602 258.851 6.2683 259.963 7.03142C260.519 7.35848 265.244 7.68553 271.985 7.74004L283.033 7.90356L283.381 22.3484C283.589 30.3067 283.867 36.8478 283.937 36.9023C284.215 37.2293 292.345 37.0658 293.387 36.7388C294.36 36.4662 294.499 34.6129 294.499 22.0214V7.63102H305.965C316.527 7.63102 317.43 7.57651 318.125 6.59535C319.029 5.23263 319.029 2.39817 318.125 1.03545C317.43 0.0542831 316.319 -0.000225067 289.079 -0.000225067C267.954 -0.000225067 260.519 0.163303 259.894 0.653881Z" fill="#EFEFEF"/>
</g>
<defs>
<filter id="filter0_d_67_391" x="0" y="0" width="322.803" height="45.0806" filterUnits="userSpaceOnUse" color-interpolation-filters="sRGB">
<feFlood flood-opacity="0" result="BackgroundImageFix"/>
<feColorMatrix in="SourceAlpha" type="matrix" values="0 0 0 0 0 0 0 0 0 0 0 0 0 0 0 0 0 0 127 0" result="hardAlpha"/>
<feOffset dy="4"/>
<feGaussianBlur stdDeviation="2"/>
<feComposite in2="hardAlpha" operator="out"/>
<feColorMatrix type="matrix" values="0 0 0 0 0 0 0 0 0 0 0 0 0 0 0 0 0 0 0.25 0"/>
<feBlend mode="normal" in2="BackgroundImageFix" result="effect1_dropShadow_67_391"/>
<feBlend mode="normal" in="SourceGraphic" in2="effect1_dropShadow_67_391" result="shape"/>
</filter>
</defs>
</svg>
